<?xml version="1.0" standalone="no"?>
<!DOCTYPE svg PUBLIC "-//W3C//DTD SVG 20010904//EN"
 "http://www.w3.org/TR/2001/REC-SVG-20010904/DTD/svg10.dtd">
<svg version="1.0" xmlns="http://www.w3.org/2000/svg"
 width="188.000000pt" height="188.000000pt" viewBox="0 0 188.000000 188.000000"
 preserveAspectRatio="xMidYMid meet">
<metadata>
Created by potrace 1.14, written by Peter Selinger 2001-2017
</metadata>
<g transform="translate(0.000000,188.000000) scale(0.100000,-0.100000)"
fill="#000000" stroke="none">
<path d="M770 1552 c0 -6 8 -9 18 -7 9 1 22 -7 29 -19 9 -15 13 -17 13 -6 1 8
8 2 15 -15 12 -27 11 -32 -9 -50 -12 -11 -17 -16 -10 -12 15 10 34 6 51 -10
19 -17 17 -19 -24 -36 -21 -9 -45 -21 -53 -29 -8 -7 -13 -12 -11 -11 2 2 11
-3 19 -10 10 -7 13 -8 9 -1 -4 7 3 14 18 16 13 3 22 2 20 -2 -7 -11 27 -23 34
-13 8 11 41 13 41 3 0 -5 -9 -12 -20 -15 -32 -10 -22 -32 13 -26 4 0 7 -4 7
-10 0 -6 9 -9 20 -6 14 3 20 0 20 -11 0 -8 3 -13 6 -9 5 5 25 -13 63 -59 5 -7
8 -15 5 -18 -2 -3 -1 -4 3 -1 3 3 13 -1 21 -8 13 -10 14 -9 8 1 -7 11 -4 12
13 3 11 -7 21 -16 21 -20 0 -5 9 -7 20 -4 13 3 20 0 20 -8 0 -11 2 -11 10 1 8
12 10 12 10 1 0 -11 3 -11 17 0 10 8 14 9 10 2 -5 -7 -1 -12 10 -12 39 1 75
-9 83 -21 6 -10 9 -9 13 1 4 9 6 10 6 2 1 -7 8 -10 19 -6 9 3 14 3 10 -2 -4
-4 -1 -13 6 -19 8 -6 17 -21 21 -34 6 -21 1 -19 -54 18 -59 41 -64 42 -116 35
-30 -3 -57 -11 -60 -16 -6 -8 15 -13 43 -10 6 1 12 -2 12 -6 0 -5 -20 -9 -45
-10 -39 -2 -47 1 -69 30 -23 29 -24 33 -8 39 10 4 12 7 5 9 -7 1 -17 3 -23 4
-5 1 -19 3 -29 4 -11 0 -27 8 -35 16 -12 13 -13 20 -4 35 7 10 16 16 22 13 5
-3 6 -1 2 6 -4 6 -11 9 -15 6 -16 -9 -151 -16 -151 -7 0 5 -11 7 -25 4 -15 -2
-25 0 -25 7 0 6 6 11 14 11 7 0 20 7 27 17 13 15 11 16 -16 9 -16 -4 -61 -11
-100 -15 -59 -7 -76 -13 -101 -37 l-29 -29 -5 30 c-4 17 -1 37 5 45 27 34 24
39 -10 17 -20 -12 -53 -37 -73 -54 -20 -18 -40 -33 -44 -33 -13 0 -60 -89 -53
-100 4 -7 -2 -21 -12 -33 -21 -23 -49 -67 -69 -106 -10 -18 -10 -30 -2 -45 11
-21 11 -21 -11 -2 -11 11 -21 27 -21 36 0 9 -4 20 -8 26 -17 18 -33 97 -31
142 5 84 43 163 99 209 8 6 45 22 82 34 62 19 68 20 83 5 17 -16 33 -21 95
-30 19 -2 48 -8 63 -12 17 -4 38 -2 52 6 20 11 24 19 19 46 -3 18 0 43 6 55 7
12 9 36 6 54 -6 32 -18 38 -42 23 -17 -11 -82 -12 -154 -3 -36 4 -76 7 -90 7
-36 0 -181 -54 -209 -77 -34 -27 -91 -88 -91 -97 0 -4 -6 -13 -12 -20 -15 -15
-48 -85 -54 -113 -17 -75 -19 -106 -11 -155 4 -30 9 -62 11 -72 1 -9 7 -23 14
-30 6 -8 13 -23 15 -34 7 -37 27 -75 42 -80 8 -3 13 -10 10 -14 -8 -13 70 -74
139 -110 68 -34 70 -38 50 -102 -4 -14 -1 -16 12 -11 11 4 15 3 11 -4 -4 -6
-2 -13 5 -15 21 -7 -13 -33 -47 -36 -16 -2 -37 -10 -45 -19 -13 -14 -13 -14 7
-4 33 17 39 13 15 -9 -12 -11 -28 -20 -37 -20 -19 0 -31 -28 -18 -41 6 -6 94
-11 207 -12 108 -1 196 -6 196 -11 0 -5 7 -3 15 4 11 9 15 9 15 1 0 -7 5 -9
12 -5 16 10 68 11 68 1 0 -4 9 -3 20 3 13 7 20 7 20 1 0 -18 94 22 121 51 13
15 16 15 25 1 12 -19 41 -12 80 22 26 22 29 23 56 9 16 -8 34 -14 41 -13 17 3
62 -17 96 -42 39 -29 207 -34 261 -8 19 9 37 16 41 14 7 -5 109 108 142 155
13 19 31 34 40 34 9 -1 15 2 12 6 -3 4 1 10 9 13 8 3 19 22 26 42 10 31 10 38
-5 49 -15 10 -14 12 10 11 39 0 62 42 49 92 -7 31 -15 39 -44 47 -19 6 -48 22
-64 37 -30 27 -37 31 -106 61 -32 14 -37 22 -54 86 -14 55 -23 73 -40 78 -11
4 -21 5 -21 3 0 -2 -16 6 -36 19 -20 12 -54 24 -75 26 -135 14 -173 40 -239
168 -27 53 -52 99 -55 101 -3 3 -21 7 -41 10 -20 2 -42 7 -47 11 -6 3 -13 2
-17 -4 -3 -5 3 -10 14 -10 12 0 21 -5 21 -11 0 -6 7 -8 16 -5 12 5 14 1 8 -16
-5 -16 -3 -20 8 -16 9 4 14 -2 16 -18 1 -16 -2 -22 -12 -18 -8 3 -17 1 -20 -5
-4 -6 -13 -8 -21 -4 -19 7 -19 -4 -1 -23 9 -9 17 -10 21 -4 3 5 12 10 18 10 7
0 6 -4 -3 -11 -11 -8 -12 -12 -2 -16 6 -2 10 -8 8 -12 -3 -4 9 -15 27 -25 24
-13 27 -13 13 -2 -11 9 -15 16 -9 16 5 0 18 -9 27 -19 13 -15 14 -20 4 -24
-10 -4 -8 -10 6 -21 20 -16 20 -16 0 -16 -27 0 -90 62 -162 161 -34 47 -72 94
-84 104 -24 21 -118 34 -118 17z m-49 -159 c-9 -15 -10 -13 -11 13 0 17 3 34
8 38 11 12 14 -32 3 -51z m-21 18 c0 -4 -6 -15 -13 -25 -12 -17 -15 -16 -47
11 l-34 28 35 6 c32 5 59 -4 59 -20z m526 -350 c-3 -4 3 -24 14 -43 l18 -35
-39 3 c-21 1 -46 10 -55 19 -15 15 -15 18 7 38 13 12 27 21 31 20 5 -2 8 2 8
8 0 5 5 7 10 4 6 -4 8 -10 6 -14z m25 -103 c0 -10 2 -10 6 0 3 9 10 7 24 -9
24 -27 24 -30 -1 -62 -11 -14 -20 -28 -20 -32 0 -9 -31 -34 -42 -35 -5 0 -8 7
-8 16 0 8 5 12 10 9 6 -3 10 -2 10 4 0 5 -16 15 -35 21 -30 10 -35 15 -29 33
8 27 4 23 33 32 16 5 21 4 17 -4 -5 -7 -1 -9 9 -5 10 4 13 13 10 25 -4 11 -2
19 4 19 6 0 11 -6 12 -12z m454 -168 c3 -5 -1 -10 -10 -10 -9 0 -13 5 -10 10
3 6 8 10 10 10 2 0 7 -4 10 -10z"/>
</g>
</svg>
